<svg xmlns="http://www.w3.org/2000/svg" width="40" height="40" viewBox="0 0 40 40">
  <g fill="none" fill-rule="evenodd" transform="translate(2 2)">
    <path fill="#326CE5" d="M17.8958245,0.980653082 C17.5947723,0.99581859 17.299805,1.07046128 17.0282269,1.20020221 L5.18922914,6.85699898 C4.56851045,7.15343611 4.11766193,7.71407097 3.96429643,8.38021567 L1.043536,21.0868106 C0.907275709,21.6782855 1.01814754,22.299277 1.35090478,22.8083785 C1.39084167,22.8699805 1.43379342,22.9296076 1.47960599,22.9870461 L9.6740883,33.1756396 C10.1037606,33.7096949 10.7552257,34.0205253 11.4441085,34.0205253 L24.5852592,34.017497 C25.2738843,34.0179988 25.9253035,33.7076135 26.3552794,33.1741255 L34.546733,22.9840178 C34.9766352,22.4496949 35.1377059,21.7502354 34.9843171,21.0837823 L32.0590143,8.3771874 C31.9056488,7.71104271 31.4548003,7.15040784 30.8340816,6.85397071 L18.9935701,1.20020221 C18.6519659,1.03699841 18.2745033,0.961505889 17.8958245,0.980653082 Z"/>
    <path fill="#FFF" fill-rule="nonzero" d="M18.0131346,5.30487472 C17.621788,5.30487472 17.3044744,5.65740872 17.3045209,6.09222283 C17.3045214,6.09889615 17.3058872,6.10527295 17.3060326,6.11190654 C17.305456,6.17098724 17.3026022,6.24216355 17.3045209,6.29360237 C17.3138537,6.54439106 17.3685214,6.73633405 17.4014253,6.96739106 C17.4610351,7.46192641 17.510984,7.87186611 17.4801602,8.25288904 C17.4501833,8.39656926 17.3443544,8.52797217 17.2500121,8.61930896 L17.2333567,8.91910708 C16.8081003,8.95434008 16.3799992,9.0188576 15.9524011,9.11594423 C14.1124469,9.53370799 12.5282788,10.4814766 11.3221857,11.7611327 C11.2439248,11.7077417 11.107008,11.6095189 11.066295,11.5794368 C10.939778,11.596522 10.8119107,11.6355585 10.6453664,11.5385553 C10.3282509,11.3250927 10.0394292,11.0304402 9.68994914,10.6755001 C9.52981552,10.5057143 9.41385288,10.344038 9.22359651,10.180379 C9.1803907,10.1432127 9.11445401,10.0929445 9.0661268,10.054706 C8.91738429,9.9361158 8.74194752,9.87426896 8.5725198,9.86846778 C8.35468394,9.86100904 8.14498031,9.94617787 8.0077486,10.1182995 C7.76378149,10.4242937 7.84189083,10.891987 8.18187377,11.1630506 C8.18532357,11.1657978 8.18899721,11.1679336 8.19247269,11.1706212 C8.23919129,11.2084924 8.29640077,11.2570178 8.33934349,11.2887235 C8.54123759,11.4377892 8.72566273,11.5140966 8.92682666,11.6324314 C9.35063824,11.8941611 9.70198322,12.111181 9.98066246,12.3728419 C10.0894871,12.4888448 10.1085075,12.6932526 10.1229909,12.7816576 L10.3501106,12.9845512 C9.13427872,14.8142854 8.57158176,17.074377 8.90411711,19.3772161 L8.60734725,19.4635216 C8.52913083,19.5645256 8.41860599,19.7234552 8.30300432,19.7708904 C7.93839506,19.8857323 7.52804787,19.9279042 7.03264766,19.9798406 C6.80006198,19.9991803 6.59937918,19.987639 6.35280244,20.0343493 C6.29853207,20.0446299 6.2229156,20.0643301 6.16353595,20.0782592 C6.16147188,20.0786952 6.15954349,20.0793057 6.15747942,20.0797709 C6.15424281,20.0805219 6.14999065,20.0820917 6.1468805,20.0827991 C5.72921557,20.1837149 5.46090655,20.5676121 5.54728427,20.9458543 C5.63368233,21.3241852 6.04164906,21.5542577 6.46181993,21.4636874 C6.46485304,21.4629946 6.46925735,21.4628783 6.47241886,21.4621757 C6.47716233,21.4610904 6.48133842,21.4587889 6.48604604,21.4576357 C6.54461751,21.4447785 6.61801875,21.4304734 6.669256,21.4167542 C6.91167894,21.3518461 7.0872504,21.2564762 7.3051914,21.172979 C7.77406063,21.0048124 8.16239501,20.8643276 8.54072303,20.8095873 C8.69873444,20.7972116 8.86521288,20.9070809 8.94802451,20.9534298 L9.25690742,20.9004352 C9.96771021,23.1041788 11.4573243,24.8853891 13.3435494,26.0030597 L13.2148482,26.3119426 C13.2612373,26.4318822 13.3124024,26.5941623 13.2778467,26.7126095 C13.1403064,27.069276 12.9047176,27.4457386 12.6364498,27.8654419 C12.5065567,28.0593438 12.3736193,28.2098214 12.2564027,28.4317273 C12.2283537,28.4848256 12.1926309,28.5663915 12.1655548,28.6225079 C11.9834306,29.0121781 12.1170231,29.4609833 12.466867,29.6294056 C12.8189088,29.7988857 13.2558858,29.6201348 13.4449962,29.2296748 C13.445287,29.2291224 13.4462415,29.2287154 13.446508,29.2281631 C13.4467018,29.227727 13.4463141,29.2270729 13.446508,29.2266514 C13.473444,29.1712923 13.511605,29.0985258 13.5343276,29.0464697 C13.6347269,28.816466 13.6681337,28.6193604 13.7387354,28.3969071 C13.9262271,27.9259447 14.0292389,27.4317858 14.2873396,27.1238681 C14.3580158,27.0395501 14.4732415,27.0071225 14.5927058,26.9751372 L14.7532038,26.6844239 C16.3975869,27.3156013 18.2382102,27.4849738 20.0768915,27.0674993 C20.496341,26.972263 20.9012789,26.8490064 21.2927394,26.7010794 C21.3378475,26.78109 21.4216771,26.9348952 21.4441526,26.9736231 C21.565554,27.0131204 21.6980636,27.0335168 21.8060302,27.1931722 C21.9991312,27.5230824 22.1311882,27.9133738 22.2920665,28.384794 C22.3626798,28.6072435 22.397577,28.8043578 22.4979884,29.0343566 C22.5208744,29.0867795 22.5588444,29.1605679 22.5858081,29.2160524 C22.7745208,29.6077809 23.2128825,29.7871428 23.5654514,29.6172974 C23.9152522,29.4487854 24.048992,29.0000209 23.8667637,28.6103997 C23.8396842,28.5542852 23.802453,28.4727159 23.7744016,28.4196191 C23.6571734,28.1977195 23.5242573,28.0487425 23.3943545,27.8548479 C23.1260644,27.4351586 22.903549,27.0865071 22.7659898,26.7298479 C22.7084717,26.5458956 22.7756938,26.4314917 22.8204985,26.3119475 C22.7936667,26.2811914 22.7362493,26.1074747 22.7023962,26.0257765 C24.6626471,24.8683421 26.1085176,23.0207073 26.7875241,20.8868129 C26.8792151,20.9012235 27.0385812,20.9294198 27.0903505,20.9398075 C27.1969231,20.8695178 27.2949129,20.7778065 27.487053,20.7929367 C27.8653835,20.8476572 28.2537067,20.9881861 28.7225847,21.1563283 C28.94053,21.2398144 29.1160942,21.3367223 29.3585201,21.4016177 C29.4097578,21.4153341 29.4831576,21.4281308 29.54173,21.4409851 C29.5464396,21.4421383 29.5506113,21.4444446 29.5553572,21.4455251 C29.5585211,21.4462325 29.562923,21.446344 29.5659561,21.4470368 C29.9861512,21.5374947 30.3941906,21.3075569 30.4804918,20.9292037 C30.5667726,20.5509392 30.2985876,20.1669529 29.8808956,20.0661485 C29.8201399,20.0523334 29.7339763,20.0288704 29.6749736,20.0176963 C29.4283945,19.970999 29.2277151,19.9825152 28.9951284,19.9631876 C28.4997258,19.9112768 28.0893868,19.8690599 27.7247717,19.7542374 C27.5761077,19.6965657 27.4703477,19.5196685 27.4189147,19.4468686 L27.1327438,19.3635913 C27.2811171,18.2901605 27.2411096,17.1730015 26.9843588,16.0552131 C26.7252175,14.9270172 26.267248,13.8951724 25.6564652,12.9860678 C25.7298727,12.919335 25.8685013,12.7965755 25.907811,12.7604621 C25.919302,12.6333153 25.9094294,12.5000058 26.0410547,12.3592172 C26.3197199,12.0975417 26.6710929,11.8805587 27.0948905,11.6188067 C27.2960481,11.5004612 27.4820014,11.4241751 27.6838878,11.2750987 C27.7295419,11.2413876 27.7918829,11.1880015 27.8398434,11.1494258 C28.1797541,10.8782712 28.2580141,10.410606 28.0139685,10.1046748 C27.7699229,9.79874358 27.2970152,9.76992662 26.9571045,10.0410812 C26.908722,10.0793997 26.8430707,10.1293864 26.7996347,10.1667542 C26.6093871,10.3304238 26.4918929,10.4920813 26.331768,10.6618753 C25.9823068,11.0168339 25.693455,11.3129651 25.3763508,11.5264446 C25.2389398,11.6064422 25.0376717,11.5787624 24.9463349,11.5733827 L24.6768194,11.7656775 C23.1399731,10.154129 21.0475223,9.12379785 18.7944267,8.92364948 C18.788125,8.82922966 18.7798692,8.65855914 18.7777712,8.60719591 C18.6855322,8.51893292 18.5741062,8.44357954 18.546109,8.25288904 C18.5152852,7.87186611 18.5667482,7.46192641 18.626358,6.96739106 C18.6592619,6.73633405 18.7139296,6.54439106 18.7232625,6.29360237 C18.7253847,6.23659203 18.7219785,6.15386568 18.7217508,6.09222283 C18.7217042,5.65740872 18.4044837,5.30487472 18.013137,5.30487472 L18.0131346,5.30487472 Z M17.1258533,10.801173 L16.915389,14.5183668 L16.9002477,14.5259375 C16.8861316,14.858482 16.6124434,15.1240196 16.2764253,15.1240196 C16.1387818,15.1240196 16.0117337,15.0798171 15.9084913,15.0044032 L15.9024347,15.0074314 L12.8544872,12.8467652 C13.7912455,11.9256328 14.9894331,11.2449159 16.3703015,10.9313884 C16.6225433,10.8741164 16.8746726,10.8316204 17.1258533,10.801173 Z M18.90193,10.801173 C20.5141035,10.999455 22.005053,11.7294604 23.1475559,12.8482794 L20.1192921,14.9953184 L20.1086931,14.9907784 C19.8399069,15.1870918 19.4612053,15.1383828 19.2516945,14.8757044 C19.1658701,14.7680939 19.1208386,14.6415644 19.1154226,14.5138269 L19.1123944,14.5123152 L18.90193,10.801173 Z M11.7491709,14.2352242 L14.5321454,16.724457 L14.5291171,16.7395983 C14.7803113,16.957971 14.8173536,17.3369144 14.607852,17.5996252 C14.5220334,17.7072401 14.407159,17.7794188 14.2838277,17.8131178 L14.2807995,17.8252309 L10.7135047,18.8548406 C10.5319407,17.194617 10.9232326,15.5807477 11.7491709,14.2352242 Z M24.2574145,14.2367359 C24.6709106,14.9069541 24.9840307,15.6555206 25.1704361,16.4670522 C25.3546059,17.2688531 25.4008259,18.0692203 25.3248775,18.8427251 L21.7394132,17.8100872 L21.7363849,17.7949458 C21.4153163,17.7071969 21.217998,17.3806009 21.2927443,17.0530212 C21.3233675,16.918827 21.3946015,16.8053024 21.4910956,16.7214263 L21.4895839,16.7138557 L24.257417,14.2367359 L24.2574145,14.2367359 Z M17.4423069,16.9167493 L18.5824482,16.9167493 L19.2910619,17.8025165 L19.0366878,18.9078328 L18.0131346,19.3999257 L16.9865532,18.9063187 L16.732179,17.8010024 L17.4423069,16.9167493 Z M21.0974213,19.9480414 C21.145872,19.9455946 21.1941116,19.9499601 21.2412638,19.9586403 L21.2473203,19.9510697 L24.9372598,20.574892 C24.3972355,22.0920812 23.36388,23.4064485 21.9831884,24.2860293 L20.5508197,20.8262379 L20.5553596,20.8201814 C20.4237823,20.5144483 20.5554565,20.1559227 20.858186,20.0101208 C20.9356926,19.9727927 21.0166679,19.952123 21.0974189,19.9480414 L21.0974213,19.9480414 Z M14.9000794,19.9631827 C15.1816711,19.9671316 15.4342467,20.1625757 15.4996757,20.4492191 C15.5303067,20.5834114 15.5153984,20.7163725 15.4648506,20.8338086 L15.4754495,20.8474357 L14.0582221,24.2724021 C12.7331915,23.4221335 11.6777999,22.1490305 11.1132355,20.5870075 L14.7713782,19.9662134 L14.7774347,19.9737841 C14.8183531,19.9662541 14.859852,19.9626207 14.9000794,19.9631851 L14.9000794,19.9631827 Z M17.9904226,21.4636899 C18.0885117,21.460085 18.1880423,21.4802111 18.2826501,21.5257693 C18.406664,21.5854881 18.5024647,21.6795174 18.5627645,21.7922565 L18.5763917,21.7922565 L20.3797228,25.0506683 C20.1456845,25.1291236 19.9050804,25.1961742 19.658996,25.2520479 C18.2798263,25.5651897 16.9050386,25.4703091 15.6601736,25.0461259 L17.4589623,21.7937706 L17.4619906,21.7937706 C17.5699262,21.5919957 17.7746271,21.4716181 17.9904226,21.4636899 Z"/>
  </g>
</svg>
